<?xml version="1.0" encoding="UTF-8"?>
<svg width="37px" height="35px" viewBox="0 0 37 35" version="1.1" xmlns="http://www.w3.org/2000/svg" xmlns:xlink="http://www.w3.org/1999/xlink">
    <!-- Generator: Sketch 52.5 (67469) - http://www.bohemiancoding.com/sketch -->
    <title>github-logo</title>
    <desc>Created with Sketch.</desc>
    <g id="Page-1" stroke="none" stroke-width="1" fill="none" fill-rule="evenodd">
        <g id="Home-Desktop" transform="translate(-1002.000000, -2946.000000)" fill="#000000">
            <g id="github-logo" transform="translate(1002.000000, 2946.000000)">
                <path d="M34.0661856,8.93952214 C32.4335346,6.19858974 30.2189477,4.02858974 27.4218422,2.42903263 C24.6243204,0.829393939 21.5702605,0.0297785548 18.2574978,0.0297785548 C14.9451513,0.0297785548 11.8900923,0.829638695 9.09315329,2.42903263 C6.29579799,4.02850816 4.08129443,6.19858974 2.44864343,8.93952214 C0.816242233,11.680373 0,14.6734033 0,17.9185315 C0,21.8166667 1.16070761,25.3219697 3.48270569,28.435338 C5.80445397,31.548951 8.80380904,33.7034499 12.4805211,34.8990793 C12.9085008,34.9769114 13.2253224,34.9221678 13.4313188,34.7362354 C13.6373985,34.5500583 13.7403135,34.3168881 13.7403135,34.037704 C13.7403135,33.9911189 13.7362335,33.5720163 13.7283234,32.7799068 C13.7201635,31.9877972 13.7163333,31.2967716 13.7163333,30.7071562 L13.1695351,30.7998368 C12.8209065,30.8624126 12.3811032,30.8889277 11.8501253,30.8814219 C11.3193972,30.8741608 10.7684357,30.819662 10.1979904,30.7183333 C9.62729528,30.6179021 9.09608388,30.3849767 8.60513986,30.0200466 C8.11404563,29.6551166 7.76541703,29.1774359 7.5593373,28.5877389 L7.32161706,28.0517249 C7.16316465,27.6948718 6.9137041,27.2984499 6.57290236,26.8639277 C6.23210062,26.4289977 5.88746871,26.1341492 5.53884011,25.9788928 L5.3723943,25.8621445 C5.26148594,25.7845571 5.15857098,25.690979 5.06339961,25.5823893 C4.96831152,25.4737995 4.89712034,25.3651282 4.84957629,25.2562937 C4.80194898,25.1473776 4.84141636,25.058042 4.96839478,24.9879604 C5.0953732,24.9178788 5.32485025,24.8838578 5.65782513,24.8838578 L6.13309909,24.9534499 C6.45008717,25.0156993 6.84217987,25.2016317 7.30987676,25.5123893 C7.77732385,25.8229021 8.16158968,26.2265851 8.4627575,26.7232751 C8.82745616,27.3601282 9.26684311,27.8453963 9.78216732,28.179324 C10.2970752,28.5132517 10.8162296,28.6799301 11.3391309,28.6799301 C11.8620321,28.6799301 12.313659,28.6410956 12.6941779,28.5638345 C13.0742805,28.4861655 13.4309025,28.3694172 13.7638774,28.2142424 C13.9065095,27.17338 14.2948553,26.3737646 14.9285817,25.8148252 C14.025328,25.7218182 13.213249,25.5817366 12.4919283,25.3954779 C11.771024,25.2089744 11.0260562,24.9062937 10.2575245,24.48662 C9.48857657,24.0675175 8.85068697,23.5470862 8.34368922,22.9262238 C7.8366082,22.305035 7.42045206,21.4895105 7.09580364,20.4803846 C6.77098869,19.4708508 6.60853958,18.3063054 6.60853958,16.9864219 C6.60853958,15.1071096 7.23468888,13.5078788 8.48673769,12.1878322 C7.90022231,10.7749417 7.95559322,9.19104895 8.65301696,7.43631702 C9.1126372,7.2963986 9.79424068,7.4013986 10.6974943,7.75066434 C11.6009145,8.10009324 12.262368,8.3994289 12.6825209,8.64761072 C13.1026737,8.89571096 13.4393122,9.10595571 13.692936,9.27646853 C15.1671346,8.87286713 16.6884609,8.67102564 18.2573312,8.67102564 C19.8262016,8.67102564 21.347861,8.87286713 22.8221428,9.27646853 L23.7254798,8.71769231 C24.3432193,8.34484848 25.0726999,8.00317016 25.912173,7.69257576 C26.7521456,7.38214452 27.3944482,7.29664336 27.8384147,7.43656177 C28.5513257,9.19137529 28.6148565,10.7751865 28.0281746,12.1880769 C29.2801401,13.5081235 29.9065392,15.1077622 29.9065392,16.9866667 C29.9065392,18.3065501 29.7435073,19.4747669 29.4191919,20.4920513 C29.0944602,21.5094988 28.6747237,22.3242075 28.1598158,22.9378904 C27.6443251,23.5514918 27.0023555,24.0678438 26.2338239,24.4868648 C25.4651257,24.9062121 24.7199081,25.2088928 23.9990038,25.3953963 C23.2777664,25.5818998 22.4656873,25.7220629 21.5624337,25.8152331 C22.386253,26.5137646 22.7982459,27.6163869 22.7982459,29.1226107 L22.7982459,34.0370513 C22.7982459,34.3162354 22.8973307,34.549324 23.0956668,34.7355828 C23.2937531,34.9215152 23.606578,34.9762587 24.0345577,34.898345 C27.7117693,33.7028788 30.7111244,31.5482984 33.0327894,28.4346853 C35.3542047,25.321317 36.5153286,21.816014 36.5153286,17.9178788 C36.5144959,14.6731585 35.6978374,11.680373 34.0661856,8.93952214 Z" id="Path"></path>
            </g>
        </g>
    </g>
</svg>