<?xml version="1.0" encoding="UTF-8"?>
<svg width="36px" height="35px" viewBox="0 0 36 35" version="1.1" xmlns="http://www.w3.org/2000/svg" xmlns:xlink="http://www.w3.org/1999/xlink">
    <!-- Generator: Sketch 52.5 (67469) - http://www.bohemiancoding.com/sketch -->
    <title>linkedin-logo</title>
    <desc>Created with Sketch.</desc>
    <g id="Page-1" stroke="none" stroke-width="1" fill="none" fill-rule="evenodd">
        <g id="Home-Desktop" transform="translate(-934.000000, -2946.000000)" fill="#000000" fill-rule="nonzero">
            <g id="linkedin-logo" transform="translate(934.000000, 2946.000000)">
                <path d="M33.0149279,0 L2.63403356,0 C1.17927329,0 0.000165756313,1.12008121 0.000165756313,2.5025406 L0.000165756313,32.4247796 C0.000165756313,33.8073202 1.17968768,34.9283759 2.63403356,34.9283759 L33.0149279,34.9283759 C34.4693567,34.9283759 35.6471382,33.8065893 35.6471382,32.4247796 L35.6471382,2.5025406 C35.6471382,1.12048724 34.4693567,0 33.0149279,0 Z M10.8073116,29.2374246 L5.42130883,29.2374246 L5.42130883,13.4676914 L10.8073116,13.4676914 L10.8073116,29.2374246 Z M8.11484891,11.3132831 L8.07863116,11.3132831 C6.2724675,11.3132831 5.10164779,10.1029814 5.10164779,8.58774942 C5.10164779,7.04198376 6.30686193,5.86448956 8.14882896,5.86448956 C9.99096174,5.86448956 11.1240719,7.04165893 11.1598753,8.58774942 C11.1598753,10.1033063 9.99137613,11.3132831 8.11484891,11.3132831 Z M30.2222656,29.2374246 L24.8380033,29.2374246 L24.8380033,20.8000696 C24.8380033,18.6800116 24.0578712,17.2333991 22.1107318,17.2333991 C20.6211627,17.2333991 19.7369356,18.2093387 19.3486515,19.1515777 C19.204775,19.4880974 19.1691374,19.9587703 19.1691374,20.4287935 L19.1691374,29.2370998 L13.7858696,29.2370998 C13.7858696,29.2370998 13.8563161,14.9464617 13.7858696,13.4674478 L19.1699662,13.4674478 L19.1699662,15.7031439 C19.8847074,14.6288631 21.1619427,13.0960153 24.0211562,13.0960153 C27.5650261,13.0960153 30.2222656,15.3490023 30.2222656,20.195 L30.2222656,29.2374246 Z M19.1401227,15.7684146 C19.1512227,15.7502146 19.1667227,15.7283146 19.1821227,15.7070146 L19.1821227,15.7684146 L19.1401227,15.7684146 Z" id="LinkedIn__x28_alt_x29_"></path>
            </g>
        </g>
    </g>
</svg>