<?xml version="1.0" encoding="UTF-8"?>
<svg width="36px" height="27px" viewBox="0 0 36 27" version="1.1" xmlns="http://www.w3.org/2000/svg" xmlns:xlink="http://www.w3.org/1999/xlink">
    <!-- Generator: Sketch 52.5 (67469) - http://www.bohemiancoding.com/sketch -->
    <title>envelope (2)</title>
    <desc>Created with Sketch.</desc>
    <g id="Page-1" stroke="none" stroke-width="1" fill="none" fill-rule="evenodd">
        <g id="Home-Desktop" transform="translate(-866.000000, -2950.000000)" fill="#000000">
            <g id="envelope-(2)" transform="translate(866.000000, 2950.000000)">
                <path d="M3.45528961,8.23473325 C3.91068476,8.53824653 5.28341406,9.43968163 7.57354787,10.9385733 C9.86375204,12.4374651 11.6182055,13.5915731 12.8369786,14.400960 C12.9708811,14.4896853 13.2553623,14.6825462 13.690563,14.9798124 C14.1258341,15.277278 14.4875045,15.5176563 14.7752929,15.7010137 C15.0632923,15.8843046 15.4114529,16.0899254 15.8201264,16.3175437 C16.2286592,16.5449627 16.6137608,16.7160253 16.9753609,16.8292696 C17.3370313,16.9434443 17.6718228,17 17.9798056,17 L18,17 L18.0202648,17 C18.3282476,17 18.6631797,16.9433779 19.0248502,16.8292696 C19.3863095,16.7160253 19.771763,16.5447633 20.1799439,16.3175437 C20.588336,16.0896595 20.9364966,15.8842381 21.224496,15.7010137 C21.5124955,15.5176563 21.8738844,15.277278 22.3092962,14.9798124 C22.7444266,14.6822804 23.0292597,14.4896853 23.1631622,14.400960 C24.3950933,13.5915731 27.5293124,11.5359635 32.5648345,8.2343345 C33.5424705,7.5894934 34.3592546,6.81140418 35.015398,5.90059851 C35.6720339,4.99019159 36,4.03512496 36,3.03593027 C36,2.20095308 35.6817441,1.48619826 35.0455137,0.891732245 C34.4093537,0.297133318 33.6558971,0 32.7856364,0 L3.21415253,0 C2.18296959,0 1.38940554,0.328833742 0.833601107,0.986501226 C0.277867036,1.64430163 0,2.4665189 0,3.45308658 C0,4.24998339 0.368425373,5.11353748 1.1049243,6.04321719 C1.84135286,6.97296336 2.62506597,7.70353517 3.45528961,8.23473325 Z" id="Path"></path>
                <path d="M33.9907628,10.6414463 C29.5983754,13.4336496 26.2631331,15.6036524 23.9866543,17.150992 C23.2232779,17.679086 22.6040064,18.091331 22.1284178,18.3867358 C21.6528291,18.6823389 21.0203293,18.9842201 20.2300035,19.2922474 C19.4399592,19.6007372 18.7036728,19.7545196 18.020511,19.7545196 L18.0000352,19.7545196 L17.9798408,19.7545196 C17.2968198,19.7545196 16.5601112,19.6007372 15.7700669,19.2922474 C14.9800226,18.9842201 14.3471005,18.6823389 13.8716526,18.3867358 C13.3963454,18.091331 12.7768628,17.679086 12.0135568,17.150992 C10.2054192,15.905798 6.87735401,13.735663 2.02922051,10.6414463 C1.26563297,10.163776 0.589296099,9.61625277 0,9 L0,23.9807249 C0,24.811427 0.314596376,25.5217864 0.944140946,26.1129925 C1.57354479,26.7043969 2.3303774,27 3.21435733,27 L32.7858538,27 C33.6696226,27 34.4263848,26.7043969 35.0558591,26.1129925 C35.6855444,25.5215881 36,24.8114931 36,23.9807249 L36,9 C35.4240023,9.60349816 34.7545614,10.1510214 33.9907628,10.6414463 Z" id="Path"></path>
            </g>
        </g>
    </g>
</svg>